<mxfile host="Electron" modified="2023-05-23T13:36:35.735Z" agent="Mozilla/5.0 (Windows NT 10.0; Win64; x64) AppleWebKit/537.36 (KHTML, like Gecko) draw.io/21.2.8 Chrome/112.0.5615.165 Electron/24.2.0 Safari/537.36" etag="SXDonqmXTNy87Gpy3Goj" version="21.2.8" type="device">
  <diagram name="Pagina-1" id="tLsxebPHoMqLCGwJLSkC">
    <mxGraphModel dx="3269" dy="2137" grid="1" gridSize="10" guides="1" tooltips="1" connect="1" arrows="1" fold="1" page="1" pageScale="1" pageWidth="827" pageHeight="1169" math="0" shadow="0">
      <root>
        <mxCell id="0" />
        <mxCell id="1" parent="0" />
        <mxCell id="akM67eb799XWZU168FPg-1" value="&lt;div&gt;STANDBY&lt;/div&gt;" style="rounded=0;whiteSpace=wrap;html=1;" parent="1" vertex="1">
          <mxGeometry x="900" y="-30" width="120" height="40" as="geometry" />
        </mxCell>
        <mxCell id="akM67eb799XWZU168FPg-7" style="edgeStyle=orthogonalEdgeStyle;rounded=0;orthogonalLoop=1;jettySize=auto;html=1;entryX=0.5;entryY=0;entryDx=0;entryDy=0;exitX=0.25;exitY=1;exitDx=0;exitDy=0;" parent="1" source="akM67eb799XWZU168FPg-2" target="akM67eb799XWZU168FPg-12" edge="1">
          <mxGeometry relative="1" as="geometry">
            <mxPoint x="960" y="60" as="sourcePoint" />
            <mxPoint x="866.5" y="200" as="targetPoint" />
          </mxGeometry>
        </mxCell>
        <mxCell id="akM67eb799XWZU168FPg-2" value="MACHINE IN STANDBY MODE" style="rounded=0;whiteSpace=wrap;html=1;" parent="1" vertex="1">
          <mxGeometry x="900" y="10" width="120" height="40" as="geometry" />
        </mxCell>
        <mxCell id="akM67eb799XWZU168FPg-3" style="edgeStyle=orthogonalEdgeStyle;rounded=0;orthogonalLoop=1;jettySize=auto;html=1;" parent="1" source="akM67eb799XWZU168FPg-4" target="akM67eb799XWZU168FPg-1" edge="1">
          <mxGeometry relative="1" as="geometry" />
        </mxCell>
        <mxCell id="akM67eb799XWZU168FPg-4" value="" style="ellipse;whiteSpace=wrap;html=1;aspect=fixed;fillColor=#000000;" parent="1" vertex="1">
          <mxGeometry x="945" y="-130" width="30" height="30" as="geometry" />
        </mxCell>
        <mxCell id="akM67eb799XWZU168FPg-8" value="MENU_BUTTON_PRESSED" style="text;html=1;align=center;verticalAlign=middle;resizable=0;points=[];autosize=1;strokeColor=none;fillColor=none;" parent="1" vertex="1">
          <mxGeometry x="600" y="90" width="180" height="30" as="geometry" />
        </mxCell>
        <mxCell id="akM67eb799XWZU168FPg-72" style="edgeStyle=orthogonalEdgeStyle;rounded=0;orthogonalLoop=1;jettySize=auto;html=1;exitX=0.5;exitY=1;exitDx=0;exitDy=0;entryX=0.5;entryY=0;entryDx=0;entryDy=0;" parent="1" source="akM67eb799XWZU168FPg-12" target="akM67eb799XWZU168FPg-24" edge="1">
          <mxGeometry relative="1" as="geometry" />
        </mxCell>
        <mxCell id="akM67eb799XWZU168FPg-100" style="edgeStyle=orthogonalEdgeStyle;rounded=0;orthogonalLoop=1;jettySize=auto;html=1;exitX=1;exitY=0.5;exitDx=0;exitDy=0;entryX=0.75;entryY=1;entryDx=0;entryDy=0;" parent="1" source="akM67eb799XWZU168FPg-12" target="akM67eb799XWZU168FPg-2" edge="1">
          <mxGeometry relative="1" as="geometry" />
        </mxCell>
        <mxCell id="akM67eb799XWZU168FPg-12" value="" style="swimlane;startSize=0;" parent="1" vertex="1">
          <mxGeometry x="350" y="200" width="387.5" height="640" as="geometry" />
        </mxCell>
        <mxCell id="akM67eb799XWZU168FPg-10" value="PROGRAM_PLAIN" style="text;html=1;align=center;verticalAlign=middle;resizable=0;points=[];autosize=1;strokeColor=none;fillColor=none;" parent="akM67eb799XWZU168FPg-12" vertex="1">
          <mxGeometry x="-9" y="10" width="130" height="30" as="geometry" />
        </mxCell>
        <mxCell id="akM67eb799XWZU168FPg-13" value="WAITING" style="rounded=0;whiteSpace=wrap;html=1;" parent="akM67eb799XWZU168FPg-12" vertex="1">
          <mxGeometry x="127.5" y="10" width="120" height="40" as="geometry" />
        </mxCell>
        <mxCell id="akM67eb799XWZU168FPg-84" style="edgeStyle=orthogonalEdgeStyle;rounded=0;orthogonalLoop=1;jettySize=auto;html=1;exitX=0.5;exitY=1;exitDx=0;exitDy=0;entryX=0.5;entryY=0;entryDx=0;entryDy=0;" parent="akM67eb799XWZU168FPg-12" source="akM67eb799XWZU168FPg-15" target="akM67eb799XWZU168FPg-16" edge="1">
          <mxGeometry relative="1" as="geometry" />
        </mxCell>
        <mxCell id="akM67eb799XWZU168FPg-15" value="" style="rounded=0;whiteSpace=wrap;html=1;" parent="akM67eb799XWZU168FPg-12" vertex="1">
          <mxGeometry x="127.5" y="50" width="120" height="40" as="geometry" />
        </mxCell>
        <mxCell id="akM67eb799XWZU168FPg-16" value="KNEADING" style="rounded=0;whiteSpace=wrap;html=1;" parent="akM67eb799XWZU168FPg-12" vertex="1">
          <mxGeometry x="127.5" y="140" width="120" height="40" as="geometry" />
        </mxCell>
        <mxCell id="akM67eb799XWZU168FPg-17" value="" style="rounded=0;whiteSpace=wrap;html=1;" parent="akM67eb799XWZU168FPg-12" vertex="1">
          <mxGeometry x="127.5" y="180" width="120" height="40" as="geometry" />
        </mxCell>
        <mxCell id="akM67eb799XWZU168FPg-18" value="RISING" style="rounded=0;whiteSpace=wrap;html=1;" parent="akM67eb799XWZU168FPg-12" vertex="1">
          <mxGeometry x="127.5" y="264.5" width="120" height="40" as="geometry" />
        </mxCell>
        <mxCell id="akM67eb799XWZU168FPg-19" value="" style="rounded=0;whiteSpace=wrap;html=1;" parent="akM67eb799XWZU168FPg-12" vertex="1">
          <mxGeometry x="127.5" y="304.5" width="120" height="40" as="geometry" />
        </mxCell>
        <mxCell id="akM67eb799XWZU168FPg-20" value="BAKING" style="rounded=0;whiteSpace=wrap;html=1;" parent="akM67eb799XWZU168FPg-12" vertex="1">
          <mxGeometry x="127.5" y="390" width="120" height="40" as="geometry" />
        </mxCell>
        <mxCell id="akM67eb799XWZU168FPg-21" value="" style="rounded=0;whiteSpace=wrap;html=1;" parent="akM67eb799XWZU168FPg-12" vertex="1">
          <mxGeometry x="127.5" y="430" width="120" height="40" as="geometry" />
        </mxCell>
        <mxCell id="akM67eb799XWZU168FPg-22" value="DONE" style="rounded=0;whiteSpace=wrap;html=1;" parent="akM67eb799XWZU168FPg-12" vertex="1">
          <mxGeometry x="127.5" y="520" width="120" height="40" as="geometry" />
        </mxCell>
        <mxCell id="akM67eb799XWZU168FPg-23" value="" style="rounded=0;whiteSpace=wrap;html=1;" parent="akM67eb799XWZU168FPg-12" vertex="1">
          <mxGeometry x="127.5" y="560" width="120" height="40" as="geometry" />
        </mxCell>
        <mxCell id="akM67eb799XWZU168FPg-74" style="edgeStyle=orthogonalEdgeStyle;rounded=0;orthogonalLoop=1;jettySize=auto;html=1;exitX=1;exitY=0.5;exitDx=0;exitDy=0;entryX=0;entryY=0.5;entryDx=0;entryDy=0;" parent="1" source="akM67eb799XWZU168FPg-24" target="akM67eb799XWZU168FPg-36" edge="1">
          <mxGeometry relative="1" as="geometry" />
        </mxCell>
        <mxCell id="akM67eb799XWZU168FPg-103" style="edgeStyle=orthogonalEdgeStyle;rounded=0;orthogonalLoop=1;jettySize=auto;html=1;exitX=1;exitY=0.25;exitDx=0;exitDy=0;entryX=0.75;entryY=1;entryDx=0;entryDy=0;" parent="1" source="akM67eb799XWZU168FPg-24" target="akM67eb799XWZU168FPg-2" edge="1">
          <mxGeometry relative="1" as="geometry" />
        </mxCell>
        <mxCell id="akM67eb799XWZU168FPg-24" value="" style="swimlane;startSize=0;" parent="1" vertex="1">
          <mxGeometry x="335.5" y="1020" width="416.5" height="640" as="geometry" />
        </mxCell>
        <mxCell id="akM67eb799XWZU168FPg-26" value="WAITING" style="rounded=0;whiteSpace=wrap;html=1;" parent="akM67eb799XWZU168FPg-24" vertex="1">
          <mxGeometry x="170" y="10" width="120" height="40" as="geometry" />
        </mxCell>
        <mxCell id="akM67eb799XWZU168FPg-27" value="" style="rounded=0;whiteSpace=wrap;html=1;" parent="akM67eb799XWZU168FPg-24" vertex="1">
          <mxGeometry x="170" y="50" width="120" height="40" as="geometry" />
        </mxCell>
        <mxCell id="akM67eb799XWZU168FPg-28" value="KNEADING" style="rounded=0;whiteSpace=wrap;html=1;" parent="akM67eb799XWZU168FPg-24" vertex="1">
          <mxGeometry x="170" y="140" width="120" height="40" as="geometry" />
        </mxCell>
        <mxCell id="akM67eb799XWZU168FPg-29" value="" style="rounded=0;whiteSpace=wrap;html=1;" parent="akM67eb799XWZU168FPg-24" vertex="1">
          <mxGeometry x="170" y="180" width="120" height="40" as="geometry" />
        </mxCell>
        <mxCell id="akM67eb799XWZU168FPg-30" value="RISING" style="rounded=0;whiteSpace=wrap;html=1;" parent="akM67eb799XWZU168FPg-24" vertex="1">
          <mxGeometry x="170" y="264.5" width="120" height="40" as="geometry" />
        </mxCell>
        <mxCell id="akM67eb799XWZU168FPg-31" value="" style="rounded=0;whiteSpace=wrap;html=1;" parent="akM67eb799XWZU168FPg-24" vertex="1">
          <mxGeometry x="170" y="304.5" width="120" height="40" as="geometry" />
        </mxCell>
        <mxCell id="akM67eb799XWZU168FPg-32" value="BAKING" style="rounded=0;whiteSpace=wrap;html=1;" parent="akM67eb799XWZU168FPg-24" vertex="1">
          <mxGeometry x="170" y="390" width="120" height="40" as="geometry" />
        </mxCell>
        <mxCell id="akM67eb799XWZU168FPg-33" value="" style="rounded=0;whiteSpace=wrap;html=1;" parent="akM67eb799XWZU168FPg-24" vertex="1">
          <mxGeometry x="170" y="430" width="120" height="40" as="geometry" />
        </mxCell>
        <mxCell id="akM67eb799XWZU168FPg-34" value="DONE" style="rounded=0;whiteSpace=wrap;html=1;" parent="akM67eb799XWZU168FPg-24" vertex="1">
          <mxGeometry x="170" y="520" width="120" height="40" as="geometry" />
        </mxCell>
        <mxCell id="akM67eb799XWZU168FPg-35" value="" style="rounded=0;whiteSpace=wrap;html=1;" parent="akM67eb799XWZU168FPg-24" vertex="1">
          <mxGeometry x="170" y="560" width="120" height="40" as="geometry" />
        </mxCell>
        <mxCell id="akM67eb799XWZU168FPg-25" value="PROGRAM_BREAD_PLUS" style="text;html=1;align=center;verticalAlign=middle;resizable=0;points=[];autosize=1;strokeColor=none;fillColor=none;" parent="akM67eb799XWZU168FPg-24" vertex="1">
          <mxGeometry y="10" width="170" height="30" as="geometry" />
        </mxCell>
        <mxCell id="akM67eb799XWZU168FPg-76" style="edgeStyle=orthogonalEdgeStyle;rounded=0;orthogonalLoop=1;jettySize=auto;html=1;entryX=0.5;entryY=1;entryDx=0;entryDy=0;exitX=0.5;exitY=0;exitDx=0;exitDy=0;" parent="1" source="akM67eb799XWZU168FPg-36" target="akM67eb799XWZU168FPg-48" edge="1">
          <mxGeometry relative="1" as="geometry">
            <mxPoint x="1440" y="1020" as="sourcePoint" />
          </mxGeometry>
        </mxCell>
        <mxCell id="akM67eb799XWZU168FPg-102" style="edgeStyle=orthogonalEdgeStyle;rounded=0;orthogonalLoop=1;jettySize=auto;html=1;exitX=0;exitY=0.25;exitDx=0;exitDy=0;entryX=0.75;entryY=1;entryDx=0;entryDy=0;" parent="1" source="akM67eb799XWZU168FPg-36" target="akM67eb799XWZU168FPg-2" edge="1">
          <mxGeometry relative="1" as="geometry" />
        </mxCell>
        <mxCell id="akM67eb799XWZU168FPg-36" value="" style="swimlane;startSize=0;" parent="1" vertex="1">
          <mxGeometry x="1260" y="1020" width="387.5" height="640" as="geometry" />
        </mxCell>
        <mxCell id="akM67eb799XWZU168FPg-37" value="PROGRAM_RAPID" style="text;html=1;align=center;verticalAlign=middle;resizable=0;points=[];autosize=1;strokeColor=none;fillColor=none;" parent="akM67eb799XWZU168FPg-36" vertex="1">
          <mxGeometry x="-2.5" y="10" width="130" height="30" as="geometry" />
        </mxCell>
        <mxCell id="akM67eb799XWZU168FPg-38" value="WAITING" style="rounded=0;whiteSpace=wrap;html=1;" parent="akM67eb799XWZU168FPg-36" vertex="1">
          <mxGeometry x="127.5" y="10" width="120" height="40" as="geometry" />
        </mxCell>
        <mxCell id="akM67eb799XWZU168FPg-39" value="" style="rounded=0;whiteSpace=wrap;html=1;" parent="akM67eb799XWZU168FPg-36" vertex="1">
          <mxGeometry x="127.5" y="50" width="120" height="40" as="geometry" />
        </mxCell>
        <mxCell id="akM67eb799XWZU168FPg-40" value="KNEADING" style="rounded=0;whiteSpace=wrap;html=1;" parent="akM67eb799XWZU168FPg-36" vertex="1">
          <mxGeometry x="127.5" y="140" width="120" height="40" as="geometry" />
        </mxCell>
        <mxCell id="akM67eb799XWZU168FPg-41" value="" style="rounded=0;whiteSpace=wrap;html=1;" parent="akM67eb799XWZU168FPg-36" vertex="1">
          <mxGeometry x="127.5" y="180" width="120" height="40" as="geometry" />
        </mxCell>
        <mxCell id="akM67eb799XWZU168FPg-42" value="RISING" style="rounded=0;whiteSpace=wrap;html=1;" parent="akM67eb799XWZU168FPg-36" vertex="1">
          <mxGeometry x="127.5" y="264.5" width="120" height="40" as="geometry" />
        </mxCell>
        <mxCell id="akM67eb799XWZU168FPg-43" value="" style="rounded=0;whiteSpace=wrap;html=1;" parent="akM67eb799XWZU168FPg-36" vertex="1">
          <mxGeometry x="127.5" y="304.5" width="120" height="40" as="geometry" />
        </mxCell>
        <mxCell id="akM67eb799XWZU168FPg-44" value="BAKING" style="rounded=0;whiteSpace=wrap;html=1;" parent="akM67eb799XWZU168FPg-36" vertex="1">
          <mxGeometry x="127.5" y="390" width="120" height="40" as="geometry" />
        </mxCell>
        <mxCell id="akM67eb799XWZU168FPg-45" value="" style="rounded=0;whiteSpace=wrap;html=1;" parent="akM67eb799XWZU168FPg-36" vertex="1">
          <mxGeometry x="127.5" y="430" width="120" height="40" as="geometry" />
        </mxCell>
        <mxCell id="akM67eb799XWZU168FPg-46" value="DONE" style="rounded=0;whiteSpace=wrap;html=1;" parent="akM67eb799XWZU168FPg-36" vertex="1">
          <mxGeometry x="127.5" y="520" width="120" height="40" as="geometry" />
        </mxCell>
        <mxCell id="akM67eb799XWZU168FPg-47" value="" style="rounded=0;whiteSpace=wrap;html=1;" parent="akM67eb799XWZU168FPg-36" vertex="1">
          <mxGeometry x="127.5" y="560" width="120" height="40" as="geometry" />
        </mxCell>
        <mxCell id="akM67eb799XWZU168FPg-79" style="edgeStyle=orthogonalEdgeStyle;rounded=0;orthogonalLoop=1;jettySize=auto;html=1;exitX=0.5;exitY=0;exitDx=0;exitDy=0;entryX=0.5;entryY=1;entryDx=0;entryDy=0;" parent="1" source="akM67eb799XWZU168FPg-48" target="akM67eb799XWZU168FPg-60" edge="1">
          <mxGeometry relative="1" as="geometry" />
        </mxCell>
        <mxCell id="akM67eb799XWZU168FPg-98" style="edgeStyle=orthogonalEdgeStyle;rounded=0;orthogonalLoop=1;jettySize=auto;html=1;exitX=0;exitY=0.5;exitDx=0;exitDy=0;entryX=0.75;entryY=1;entryDx=0;entryDy=0;" parent="1" source="akM67eb799XWZU168FPg-48" target="akM67eb799XWZU168FPg-2" edge="1">
          <mxGeometry relative="1" as="geometry">
            <mxPoint x="1007" y="40" as="targetPoint" />
          </mxGeometry>
        </mxCell>
        <mxCell id="akM67eb799XWZU168FPg-48" value="" style="swimlane;startSize=0;" parent="1" vertex="1">
          <mxGeometry x="1256.5" y="210" width="387.5" height="640" as="geometry" />
        </mxCell>
        <mxCell id="akM67eb799XWZU168FPg-49" value="PROGRAM_DOUGH" style="text;html=1;align=center;verticalAlign=middle;resizable=0;points=[];autosize=1;strokeColor=none;fillColor=none;" parent="akM67eb799XWZU168FPg-48" vertex="1">
          <mxGeometry x="-6.5" y="10" width="140" height="30" as="geometry" />
        </mxCell>
        <mxCell id="akM67eb799XWZU168FPg-50" value="WAITING" style="rounded=0;whiteSpace=wrap;html=1;" parent="akM67eb799XWZU168FPg-48" vertex="1">
          <mxGeometry x="127.5" y="10" width="120" height="40" as="geometry" />
        </mxCell>
        <mxCell id="akM67eb799XWZU168FPg-51" value="" style="rounded=0;whiteSpace=wrap;html=1;" parent="akM67eb799XWZU168FPg-48" vertex="1">
          <mxGeometry x="127.5" y="50" width="120" height="40" as="geometry" />
        </mxCell>
        <mxCell id="akM67eb799XWZU168FPg-52" value="KNEADING" style="rounded=0;whiteSpace=wrap;html=1;" parent="akM67eb799XWZU168FPg-48" vertex="1">
          <mxGeometry x="127.5" y="140" width="120" height="40" as="geometry" />
        </mxCell>
        <mxCell id="akM67eb799XWZU168FPg-53" value="" style="rounded=0;whiteSpace=wrap;html=1;" parent="akM67eb799XWZU168FPg-48" vertex="1">
          <mxGeometry x="127.5" y="180" width="120" height="40" as="geometry" />
        </mxCell>
        <mxCell id="akM67eb799XWZU168FPg-54" value="RISING" style="rounded=0;whiteSpace=wrap;html=1;" parent="akM67eb799XWZU168FPg-48" vertex="1">
          <mxGeometry x="127.5" y="264.5" width="120" height="40" as="geometry" />
        </mxCell>
        <mxCell id="akM67eb799XWZU168FPg-55" value="" style="rounded=0;whiteSpace=wrap;html=1;" parent="akM67eb799XWZU168FPg-48" vertex="1">
          <mxGeometry x="127.5" y="304.5" width="120" height="40" as="geometry" />
        </mxCell>
        <mxCell id="akM67eb799XWZU168FPg-56" value="BAKING" style="rounded=0;whiteSpace=wrap;html=1;" parent="akM67eb799XWZU168FPg-48" vertex="1">
          <mxGeometry x="127.5" y="390" width="120" height="40" as="geometry" />
        </mxCell>
        <mxCell id="akM67eb799XWZU168FPg-57" value="" style="rounded=0;whiteSpace=wrap;html=1;" parent="akM67eb799XWZU168FPg-48" vertex="1">
          <mxGeometry x="127.5" y="430" width="120" height="40" as="geometry" />
        </mxCell>
        <mxCell id="akM67eb799XWZU168FPg-58" value="DONE" style="rounded=0;whiteSpace=wrap;html=1;" parent="akM67eb799XWZU168FPg-48" vertex="1">
          <mxGeometry x="127.5" y="520" width="120" height="40" as="geometry" />
        </mxCell>
        <mxCell id="akM67eb799XWZU168FPg-59" value="" style="rounded=0;whiteSpace=wrap;html=1;" parent="akM67eb799XWZU168FPg-48" vertex="1">
          <mxGeometry x="127.5" y="560" width="120" height="40" as="geometry" />
        </mxCell>
        <mxCell id="akM67eb799XWZU168FPg-82" style="edgeStyle=orthogonalEdgeStyle;rounded=0;orthogonalLoop=1;jettySize=auto;html=1;exitX=0;exitY=0.5;exitDx=0;exitDy=0;entryX=1;entryY=0.5;entryDx=0;entryDy=0;" parent="1" source="akM67eb799XWZU168FPg-60" target="akM67eb799XWZU168FPg-1" edge="1">
          <mxGeometry relative="1" as="geometry">
            <Array as="points">
              <mxPoint x="1100" y="-220" />
              <mxPoint x="1100" y="-10" />
            </Array>
          </mxGeometry>
        </mxCell>
        <mxCell id="akM67eb799XWZU168FPg-96" style="edgeStyle=orthogonalEdgeStyle;rounded=0;orthogonalLoop=1;jettySize=auto;html=1;exitX=0;exitY=0.75;exitDx=0;exitDy=0;entryX=1;entryY=0.5;entryDx=0;entryDy=0;" parent="1" source="akM67eb799XWZU168FPg-60" target="akM67eb799XWZU168FPg-1" edge="1">
          <mxGeometry relative="1" as="geometry">
            <Array as="points">
              <mxPoint x="1100" y="-60" />
              <mxPoint x="1100" y="-10" />
            </Array>
          </mxGeometry>
        </mxCell>
        <mxCell id="akM67eb799XWZU168FPg-60" value="" style="swimlane;startSize=0;" parent="1" vertex="1">
          <mxGeometry x="1256.5" y="-540" width="387.5" height="640" as="geometry" />
        </mxCell>
        <mxCell id="akM67eb799XWZU168FPg-61" value="PROGRAM_BAKE" style="text;html=1;align=center;verticalAlign=middle;resizable=0;points=[];autosize=1;strokeColor=none;fillColor=none;" parent="akM67eb799XWZU168FPg-60" vertex="1">
          <mxGeometry y="10" width="120" height="30" as="geometry" />
        </mxCell>
        <mxCell id="akM67eb799XWZU168FPg-62" value="WAITING" style="rounded=0;whiteSpace=wrap;html=1;" parent="akM67eb799XWZU168FPg-60" vertex="1">
          <mxGeometry x="127.5" y="10" width="120" height="40" as="geometry" />
        </mxCell>
        <mxCell id="akM67eb799XWZU168FPg-63" value="" style="rounded=0;whiteSpace=wrap;html=1;" parent="akM67eb799XWZU168FPg-60" vertex="1">
          <mxGeometry x="127.5" y="50" width="120" height="40" as="geometry" />
        </mxCell>
        <mxCell id="akM67eb799XWZU168FPg-64" value="KNEADING" style="rounded=0;whiteSpace=wrap;html=1;" parent="akM67eb799XWZU168FPg-60" vertex="1">
          <mxGeometry x="127.5" y="140" width="120" height="40" as="geometry" />
        </mxCell>
        <mxCell id="akM67eb799XWZU168FPg-65" value="" style="rounded=0;whiteSpace=wrap;html=1;" parent="akM67eb799XWZU168FPg-60" vertex="1">
          <mxGeometry x="127.5" y="180" width="120" height="40" as="geometry" />
        </mxCell>
        <mxCell id="akM67eb799XWZU168FPg-66" value="RISING" style="rounded=0;whiteSpace=wrap;html=1;" parent="akM67eb799XWZU168FPg-60" vertex="1">
          <mxGeometry x="127.5" y="264.5" width="120" height="40" as="geometry" />
        </mxCell>
        <mxCell id="akM67eb799XWZU168FPg-67" value="" style="rounded=0;whiteSpace=wrap;html=1;" parent="akM67eb799XWZU168FPg-60" vertex="1">
          <mxGeometry x="127.5" y="304.5" width="120" height="40" as="geometry" />
        </mxCell>
        <mxCell id="akM67eb799XWZU168FPg-68" value="BAKING" style="rounded=0;whiteSpace=wrap;html=1;" parent="akM67eb799XWZU168FPg-60" vertex="1">
          <mxGeometry x="127.5" y="390" width="120" height="40" as="geometry" />
        </mxCell>
        <mxCell id="akM67eb799XWZU168FPg-69" value="" style="rounded=0;whiteSpace=wrap;html=1;" parent="akM67eb799XWZU168FPg-60" vertex="1">
          <mxGeometry x="127.5" y="430" width="120" height="40" as="geometry" />
        </mxCell>
        <mxCell id="akM67eb799XWZU168FPg-70" value="DONE" style="rounded=0;whiteSpace=wrap;html=1;" parent="akM67eb799XWZU168FPg-60" vertex="1">
          <mxGeometry x="127.5" y="520" width="120" height="40" as="geometry" />
        </mxCell>
        <mxCell id="akM67eb799XWZU168FPg-71" value="" style="rounded=0;whiteSpace=wrap;html=1;" parent="akM67eb799XWZU168FPg-60" vertex="1">
          <mxGeometry x="127.5" y="560" width="120" height="40" as="geometry" />
        </mxCell>
        <mxCell id="akM67eb799XWZU168FPg-87" value="MENU_BUTTON_PRESSED" style="text;html=1;align=center;verticalAlign=middle;resizable=0;points=[];autosize=1;strokeColor=none;fillColor=none;" parent="1" vertex="1">
          <mxGeometry x="1000" y="-270" width="180" height="30" as="geometry" />
        </mxCell>
        <mxCell id="akM67eb799XWZU168FPg-88" value="MENU_BUTTON_PRESSED" style="text;html=1;align=center;verticalAlign=middle;resizable=0;points=[];autosize=1;strokeColor=none;fillColor=none;" parent="1" vertex="1">
          <mxGeometry x="1464" y="140" width="180" height="30" as="geometry" />
        </mxCell>
        <mxCell id="akM67eb799XWZU168FPg-89" value="MENU_BUTTON_PRESSED" style="text;html=1;align=center;verticalAlign=middle;resizable=0;points=[];autosize=1;strokeColor=none;fillColor=none;" parent="1" vertex="1">
          <mxGeometry x="550" y="920" width="180" height="30" as="geometry" />
        </mxCell>
        <mxCell id="akM67eb799XWZU168FPg-90" value="MENU_BUTTON_PRESSED" style="text;html=1;align=center;verticalAlign=middle;resizable=0;points=[];autosize=1;strokeColor=none;fillColor=none;" parent="1" vertex="1">
          <mxGeometry x="1241" y="920" width="180" height="30" as="geometry" />
        </mxCell>
        <mxCell id="akM67eb799XWZU168FPg-91" value="MENU_BUTTON_PRESSED" style="text;html=1;align=center;verticalAlign=middle;resizable=0;points=[];autosize=1;strokeColor=none;fillColor=none;" parent="1" vertex="1">
          <mxGeometry x="1080" y="1290" width="180" height="30" as="geometry" />
        </mxCell>
        <mxCell id="akM67eb799XWZU168FPg-95" value="MENU_BUTTON_LONG_PRESSED" style="text;html=1;align=center;verticalAlign=middle;resizable=0;points=[];autosize=1;strokeColor=none;fillColor=none;" parent="1" vertex="1">
          <mxGeometry x="1046.5" y="-50" width="220" height="30" as="geometry" />
        </mxCell>
        <mxCell id="akM67eb799XWZU168FPg-97" value="MENU_BUTTON_LONG_PRESSED" style="text;html=1;align=center;verticalAlign=middle;resizable=0;points=[];autosize=1;strokeColor=none;fillColor=none;" parent="1" vertex="1">
          <mxGeometry x="1020" y="480" width="220" height="30" as="geometry" />
        </mxCell>
        <mxCell id="akM67eb799XWZU168FPg-101" value="MENU_BUTTON_LONG_PRESSED" style="text;html=1;align=center;verticalAlign=middle;resizable=0;points=[];autosize=1;strokeColor=none;fillColor=none;" parent="1" vertex="1">
          <mxGeometry x="755" y="480" width="220" height="30" as="geometry" />
        </mxCell>
        <mxCell id="akM67eb799XWZU168FPg-104" value="MENU_BUTTON_LONG_PRESSED" style="text;html=1;align=center;verticalAlign=middle;resizable=0;points=[];autosize=1;strokeColor=none;fillColor=none;" parent="1" vertex="1">
          <mxGeometry x="1010" y="1120" width="220" height="30" as="geometry" />
        </mxCell>
        <mxCell id="akM67eb799XWZU168FPg-105" value="MENU_BUTTON_LONG_PRESSED" style="text;html=1;align=center;verticalAlign=middle;resizable=0;points=[];autosize=1;strokeColor=none;fillColor=none;" parent="1" vertex="1">
          <mxGeometry x="760" y="1120" width="220" height="30" as="geometry" />
        </mxCell>
        <mxCell id="d3JRZ0Z-gsxvtp5kxETU-19" style="edgeStyle=orthogonalEdgeStyle;rounded=0;orthogonalLoop=1;jettySize=auto;html=1;exitX=0.5;exitY=1;exitDx=0;exitDy=0;entryX=0.5;entryY=0;entryDx=0;entryDy=0;" parent="1" source="d3JRZ0Z-gsxvtp5kxETU-9" edge="1" target="DwlNqA49wbPzXnXZkH1S-24">
          <mxGeometry relative="1" as="geometry">
            <mxPoint x="-869.1304347826085" y="-70" as="targetPoint" />
          </mxGeometry>
        </mxCell>
        <mxCell id="r_A-rZY8FQ4PbcmI-XpY-9" style="edgeStyle=orthogonalEdgeStyle;rounded=0;orthogonalLoop=1;jettySize=auto;html=1;exitX=0.25;exitY=1;exitDx=0;exitDy=0;entryX=0.002;entryY=0.408;entryDx=0;entryDy=0;entryPerimeter=0;" edge="1" parent="1" source="d3JRZ0Z-gsxvtp5kxETU-9" target="r_A-rZY8FQ4PbcmI-XpY-7">
          <mxGeometry relative="1" as="geometry">
            <Array as="points">
              <mxPoint x="-1010" y="-190" />
              <mxPoint x="-1010" y="412" />
            </Array>
          </mxGeometry>
        </mxCell>
        <mxCell id="d3JRZ0Z-gsxvtp5kxETU-9" value="" style="rounded=1;whiteSpace=wrap;html=1;" parent="1" vertex="1">
          <mxGeometry x="-940" y="-280" width="140.98" height="90" as="geometry" />
        </mxCell>
        <mxCell id="d3JRZ0Z-gsxvtp5kxETU-10" value="" style="endArrow=none;html=1;rounded=0;exitX=-0.007;exitY=0.342;exitDx=0;exitDy=0;entryX=0.999;entryY=0.342;entryDx=0;entryDy=0;exitPerimeter=0;entryPerimeter=0;" parent="1" source="d3JRZ0Z-gsxvtp5kxETU-9" target="d3JRZ0Z-gsxvtp5kxETU-9" edge="1">
          <mxGeometry width="50" height="50" relative="1" as="geometry">
            <mxPoint x="-949.02" y="-290" as="sourcePoint" />
            <mxPoint x="-899.02" y="-340" as="targetPoint" />
          </mxGeometry>
        </mxCell>
        <mxCell id="d3JRZ0Z-gsxvtp5kxETU-17" style="edgeStyle=orthogonalEdgeStyle;rounded=0;orthogonalLoop=1;jettySize=auto;html=1;exitX=0.5;exitY=0;exitDx=0;exitDy=0;entryX=1;entryY=0;entryDx=0;entryDy=0;" parent="1" source="d3JRZ0Z-gsxvtp5kxETU-11" target="d3JRZ0Z-gsxvtp5kxETU-9" edge="1">
          <mxGeometry relative="1" as="geometry">
            <Array as="points">
              <mxPoint x="-820" y="-280" />
              <mxPoint x="-820" y="-330" />
              <mxPoint x="-760" y="-330" />
              <mxPoint x="-760" y="-280" />
            </Array>
          </mxGeometry>
        </mxCell>
        <mxCell id="d3JRZ0Z-gsxvtp5kxETU-11" value="STANDBY" style="text;html=1;strokeColor=none;fillColor=none;align=center;verticalAlign=middle;whiteSpace=wrap;rounded=0;" parent="1" vertex="1">
          <mxGeometry x="-914.02" y="-280" width="90" height="30" as="geometry" />
        </mxCell>
        <mxCell id="d3JRZ0Z-gsxvtp5kxETU-18" value="MENU_BUTTON_PRESSED / HandleStandbyState()" style="text;html=1;align=center;verticalAlign=middle;resizable=0;points=[];autosize=1;strokeColor=none;fillColor=none;" parent="1" vertex="1">
          <mxGeometry x="-1225" y="-340" width="310" height="30" as="geometry" />
        </mxCell>
        <mxCell id="d3JRZ0Z-gsxvtp5kxETU-25" value="START_BUTTON_PRESSED / StartProgram()" style="text;html=1;align=center;verticalAlign=middle;resizable=0;points=[];autosize=1;strokeColor=none;fillColor=none;" parent="1" vertex="1">
          <mxGeometry x="-860" y="-150" width="270" height="30" as="geometry" />
        </mxCell>
        <mxCell id="DwlNqA49wbPzXnXZkH1S-10" style="edgeStyle=orthogonalEdgeStyle;rounded=0;orthogonalLoop=1;jettySize=auto;html=1;exitX=0;exitY=0.5;exitDx=0;exitDy=0;" parent="1" source="d3JRZ0Z-gsxvtp5kxETU-26" edge="1">
          <mxGeometry relative="1" as="geometry">
            <mxPoint x="-950" y="-239.99999999999977" as="targetPoint" />
            <Array as="points">
              <mxPoint x="-1220" y="280" />
              <mxPoint x="-1320" y="280" />
              <mxPoint x="-1320" y="-240" />
            </Array>
          </mxGeometry>
        </mxCell>
        <mxCell id="d3JRZ0Z-gsxvtp5kxETU-26" value="" style="swimlane;startSize=0;" parent="1" vertex="1">
          <mxGeometry x="-1220" y="-70" width="1080" height="820" as="geometry" />
        </mxCell>
        <mxCell id="d3JRZ0Z-gsxvtp5kxETU-27" value="IN_PROGRAM" style="text;html=1;align=center;verticalAlign=middle;resizable=0;points=[];autosize=1;strokeColor=none;fillColor=none;" parent="d3JRZ0Z-gsxvtp5kxETU-26" vertex="1">
          <mxGeometry x="10" y="10" width="100" height="30" as="geometry" />
        </mxCell>
        <mxCell id="DwlNqA49wbPzXnXZkH1S-1" style="edgeStyle=orthogonalEdgeStyle;rounded=0;orthogonalLoop=1;jettySize=auto;html=1;exitX=0.5;exitY=1;exitDx=0;exitDy=0;entryX=0.5;entryY=0;entryDx=0;entryDy=0;" parent="d3JRZ0Z-gsxvtp5kxETU-26" edge="1">
          <mxGeometry relative="1" as="geometry">
            <mxPoint x="685.46" y="110" as="sourcePoint" />
            <mxPoint x="685.46" y="160" as="targetPoint" />
          </mxGeometry>
        </mxCell>
        <mxCell id="DwlNqA49wbPzXnXZkH1S-3" style="edgeStyle=orthogonalEdgeStyle;rounded=0;orthogonalLoop=1;jettySize=auto;html=1;exitX=0.5;exitY=1;exitDx=0;exitDy=0;entryX=0.5;entryY=0;entryDx=0;entryDy=0;" parent="d3JRZ0Z-gsxvtp5kxETU-26" edge="1">
          <mxGeometry relative="1" as="geometry">
            <mxPoint x="685.21" y="390" as="sourcePoint" />
            <mxPoint x="685.21" y="440" as="targetPoint" />
          </mxGeometry>
        </mxCell>
        <mxCell id="DwlNqA49wbPzXnXZkH1S-6" value="TIMER_TIMEOUT / HandleKneadingState()" style="text;html=1;align=center;verticalAlign=middle;resizable=0;points=[];autosize=1;strokeColor=none;fillColor=none;" parent="d3JRZ0Z-gsxvtp5kxETU-26" vertex="1">
          <mxGeometry x="681.46" y="125" width="260" height="30" as="geometry" />
        </mxCell>
        <mxCell id="DwlNqA49wbPzXnXZkH1S-12" value="TIMER_TIMEOUT / HandleRisingState()" style="text;html=1;align=center;verticalAlign=middle;resizable=0;points=[];autosize=1;strokeColor=none;fillColor=none;" parent="d3JRZ0Z-gsxvtp5kxETU-26" vertex="1">
          <mxGeometry x="701.46" y="260" width="240" height="30" as="geometry" />
        </mxCell>
        <mxCell id="DwlNqA49wbPzXnXZkH1S-13" value="OVEN_DONE / HandleBakingState()" style="text;html=1;align=center;verticalAlign=middle;resizable=0;points=[];autosize=1;strokeColor=none;fillColor=none;" parent="d3JRZ0Z-gsxvtp5kxETU-26" vertex="1">
          <mxGeometry x="701.46" y="400" width="220" height="30" as="geometry" />
        </mxCell>
        <mxCell id="DwlNqA49wbPzXnXZkH1S-14" value="OVEN_DONE / HandleDoneState()" style="text;html=1;align=center;verticalAlign=middle;resizable=0;points=[];autosize=1;strokeColor=none;fillColor=none;" parent="d3JRZ0Z-gsxvtp5kxETU-26" vertex="1">
          <mxGeometry x="716.46" y="560" width="210" height="30" as="geometry" />
        </mxCell>
        <mxCell id="DwlNqA49wbPzXnXZkH1S-22" value="" style="rounded=1;whiteSpace=wrap;html=1;movable=1;resizable=1;rotatable=1;deletable=1;editable=1;locked=0;connectable=1;" parent="d3JRZ0Z-gsxvtp5kxETU-26" vertex="1">
          <mxGeometry x="591.54" y="35" width="210" height="90" as="geometry" />
        </mxCell>
        <mxCell id="DwlNqA49wbPzXnXZkH1S-23" value="" style="endArrow=none;html=1;rounded=0;exitX=-0.007;exitY=0.342;exitDx=0;exitDy=0;entryX=0.999;entryY=0.342;entryDx=0;entryDy=0;exitPerimeter=0;entryPerimeter=0;" parent="d3JRZ0Z-gsxvtp5kxETU-26" source="DwlNqA49wbPzXnXZkH1S-22" target="DwlNqA49wbPzXnXZkH1S-22" edge="1">
          <mxGeometry width="50" height="50" relative="1" as="geometry">
            <mxPoint x="595.21" y="20" as="sourcePoint" />
            <mxPoint x="645.21" y="-30" as="targetPoint" />
          </mxGeometry>
        </mxCell>
        <mxCell id="DwlNqA49wbPzXnXZkH1S-24" value="PROGRAM_WAITING" style="text;html=1;strokeColor=none;fillColor=none;align=center;verticalAlign=middle;whiteSpace=wrap;rounded=0;movable=1;resizable=1;rotatable=1;deletable=1;editable=1;locked=0;connectable=1;" parent="d3JRZ0Z-gsxvtp5kxETU-26" vertex="1">
          <mxGeometry x="643.46" y="30" width="90" height="30" as="geometry" />
        </mxCell>
        <mxCell id="DwlNqA49wbPzXnXZkH1S-35" style="edgeStyle=orthogonalEdgeStyle;rounded=0;orthogonalLoop=1;jettySize=auto;html=1;exitX=0.5;exitY=1;exitDx=0;exitDy=0;entryX=0.5;entryY=0;entryDx=0;entryDy=0;" parent="d3JRZ0Z-gsxvtp5kxETU-26" source="DwlNqA49wbPzXnXZkH1S-26" target="DwlNqA49wbPzXnXZkH1S-33" edge="1">
          <mxGeometry relative="1" as="geometry" />
        </mxCell>
        <mxCell id="DwlNqA49wbPzXnXZkH1S-26" value="" style="rounded=1;whiteSpace=wrap;html=1;align=left;" parent="d3JRZ0Z-gsxvtp5kxETU-26" vertex="1">
          <mxGeometry x="591.54" y="160" width="200" height="90" as="geometry" />
        </mxCell>
        <mxCell id="DwlNqA49wbPzXnXZkH1S-27" value="" style="endArrow=none;html=1;rounded=0;exitX=-0.007;exitY=0.342;exitDx=0;exitDy=0;entryX=0.999;entryY=0.342;entryDx=0;entryDy=0;exitPerimeter=0;entryPerimeter=0;" parent="d3JRZ0Z-gsxvtp5kxETU-26" source="DwlNqA49wbPzXnXZkH1S-26" target="DwlNqA49wbPzXnXZkH1S-26" edge="1">
          <mxGeometry width="50" height="50" relative="1" as="geometry">
            <mxPoint x="462.44000000000005" y="150" as="sourcePoint" />
            <mxPoint x="512.44" y="100" as="targetPoint" />
          </mxGeometry>
        </mxCell>
        <mxCell id="DwlNqA49wbPzXnXZkH1S-28" value="PROGRAM_KNEADING" style="text;html=1;strokeColor=none;fillColor=none;align=center;verticalAlign=middle;whiteSpace=wrap;rounded=0;" parent="d3JRZ0Z-gsxvtp5kxETU-26" vertex="1">
          <mxGeometry x="636.46" y="160" width="90" height="30" as="geometry" />
        </mxCell>
        <mxCell id="DwlNqA49wbPzXnXZkH1S-29" value="entry /&amp;nbsp;SetCurrentTask(KNEADING)" style="text;html=1;align=center;verticalAlign=middle;resizable=0;points=[];autosize=1;strokeColor=none;fillColor=none;" parent="d3JRZ0Z-gsxvtp5kxETU-26" vertex="1">
          <mxGeometry x="590.46" y="190" width="210" height="30" as="geometry" />
        </mxCell>
        <mxCell id="DwlNqA49wbPzXnXZkH1S-31" value="" style="rounded=1;whiteSpace=wrap;html=1;align=left;" parent="d3JRZ0Z-gsxvtp5kxETU-26" vertex="1">
          <mxGeometry x="581.54" y="300" width="210" height="90" as="geometry" />
        </mxCell>
        <mxCell id="DwlNqA49wbPzXnXZkH1S-32" value="" style="endArrow=none;html=1;rounded=0;exitX=-0.007;exitY=0.342;exitDx=0;exitDy=0;entryX=0.999;entryY=0.342;entryDx=0;entryDy=0;exitPerimeter=0;entryPerimeter=0;" parent="d3JRZ0Z-gsxvtp5kxETU-26" source="DwlNqA49wbPzXnXZkH1S-31" target="DwlNqA49wbPzXnXZkH1S-31" edge="1">
          <mxGeometry width="50" height="50" relative="1" as="geometry">
            <mxPoint x="462.44000000000005" y="290" as="sourcePoint" />
            <mxPoint x="512.44" y="240" as="targetPoint" />
          </mxGeometry>
        </mxCell>
        <mxCell id="DwlNqA49wbPzXnXZkH1S-33" value="PROGRAM_RISING" style="text;html=1;strokeColor=none;fillColor=none;align=center;verticalAlign=middle;whiteSpace=wrap;rounded=0;" parent="d3JRZ0Z-gsxvtp5kxETU-26" vertex="1">
          <mxGeometry x="636.46" y="300" width="90" height="30" as="geometry" />
        </mxCell>
        <mxCell id="DwlNqA49wbPzXnXZkH1S-52" style="edgeStyle=orthogonalEdgeStyle;rounded=0;orthogonalLoop=1;jettySize=auto;html=1;exitX=0.5;exitY=1;exitDx=0;exitDy=0;entryX=0.5;entryY=0;entryDx=0;entryDy=0;" parent="d3JRZ0Z-gsxvtp5kxETU-26" source="DwlNqA49wbPzXnXZkH1S-39" target="DwlNqA49wbPzXnXZkH1S-49" edge="1">
          <mxGeometry relative="1" as="geometry" />
        </mxCell>
        <mxCell id="DwlNqA49wbPzXnXZkH1S-39" value="" style="rounded=1;whiteSpace=wrap;html=1;align=left;" parent="d3JRZ0Z-gsxvtp5kxETU-26" vertex="1">
          <mxGeometry x="581.54" y="440" width="200" height="90" as="geometry" />
        </mxCell>
        <mxCell id="DwlNqA49wbPzXnXZkH1S-40" value="" style="endArrow=none;html=1;rounded=0;exitX=-0.007;exitY=0.342;exitDx=0;exitDy=0;entryX=0.999;entryY=0.342;entryDx=0;entryDy=0;exitPerimeter=0;entryPerimeter=0;" parent="d3JRZ0Z-gsxvtp5kxETU-26" source="DwlNqA49wbPzXnXZkH1S-39" target="DwlNqA49wbPzXnXZkH1S-39" edge="1">
          <mxGeometry width="50" height="50" relative="1" as="geometry">
            <mxPoint x="466.44000000000005" y="430" as="sourcePoint" />
            <mxPoint x="516.44" y="380" as="targetPoint" />
          </mxGeometry>
        </mxCell>
        <mxCell id="DwlNqA49wbPzXnXZkH1S-41" value="PROGRAM_BAKING" style="text;html=1;strokeColor=none;fillColor=none;align=center;verticalAlign=middle;whiteSpace=wrap;rounded=0;" parent="d3JRZ0Z-gsxvtp5kxETU-26" vertex="1">
          <mxGeometry x="640.46" y="440" width="90" height="30" as="geometry" />
        </mxCell>
        <mxCell id="DwlNqA49wbPzXnXZkH1S-47" value="" style="rounded=1;whiteSpace=wrap;html=1;align=left;" parent="d3JRZ0Z-gsxvtp5kxETU-26" vertex="1">
          <mxGeometry x="571.54" y="590" width="220" height="90" as="geometry" />
        </mxCell>
        <mxCell id="DwlNqA49wbPzXnXZkH1S-48" value="" style="endArrow=none;html=1;rounded=0;exitX=-0.007;exitY=0.342;exitDx=0;exitDy=0;entryX=0.999;entryY=0.342;entryDx=0;entryDy=0;exitPerimeter=0;entryPerimeter=0;" parent="d3JRZ0Z-gsxvtp5kxETU-26" source="DwlNqA49wbPzXnXZkH1S-47" target="DwlNqA49wbPzXnXZkH1S-47" edge="1">
          <mxGeometry width="50" height="50" relative="1" as="geometry">
            <mxPoint x="466.44000000000005" y="580" as="sourcePoint" />
            <mxPoint x="516.44" y="530" as="targetPoint" />
          </mxGeometry>
        </mxCell>
        <mxCell id="DwlNqA49wbPzXnXZkH1S-49" value="PROGRAM_DONE" style="text;html=1;strokeColor=none;fillColor=none;align=center;verticalAlign=middle;whiteSpace=wrap;rounded=0;" parent="d3JRZ0Z-gsxvtp5kxETU-26" vertex="1">
          <mxGeometry x="640.46" y="590" width="90" height="30" as="geometry" />
        </mxCell>
        <mxCell id="r_A-rZY8FQ4PbcmI-XpY-4" value="entry /&amp;nbsp;SetCurrentTask(WAITING)" style="text;html=1;align=center;verticalAlign=middle;resizable=0;points=[];autosize=1;strokeColor=none;fillColor=none;" vertex="1" parent="d3JRZ0Z-gsxvtp5kxETU-26">
          <mxGeometry x="585.46" y="65" width="200" height="30" as="geometry" />
        </mxCell>
        <mxCell id="r_A-rZY8FQ4PbcmI-XpY-5" value="entry /&amp;nbsp;SetCurrentTask(KNEADING)" style="text;html=1;align=center;verticalAlign=middle;resizable=0;points=[];autosize=1;strokeColor=none;fillColor=none;" vertex="1" parent="d3JRZ0Z-gsxvtp5kxETU-26">
          <mxGeometry x="576.46" y="330" width="210" height="30" as="geometry" />
        </mxCell>
        <mxCell id="r_A-rZY8FQ4PbcmI-XpY-7" value="entry /&amp;nbsp;SetCurrentTask(BAKING)" style="text;html=1;align=center;verticalAlign=middle;resizable=0;points=[];autosize=1;strokeColor=none;fillColor=none;" vertex="1" parent="d3JRZ0Z-gsxvtp5kxETU-26">
          <mxGeometry x="581.46" y="470" width="200" height="30" as="geometry" />
        </mxCell>
        <mxCell id="r_A-rZY8FQ4PbcmI-XpY-8" value="entry /&amp;nbsp;SetCurrentTask(DONE)" style="text;html=1;align=center;verticalAlign=middle;resizable=0;points=[];autosize=1;strokeColor=none;fillColor=none;" vertex="1" parent="d3JRZ0Z-gsxvtp5kxETU-26">
          <mxGeometry x="576.5400000000002" y="625" width="190" height="30" as="geometry" />
        </mxCell>
        <mxCell id="r_A-rZY8FQ4PbcmI-XpY-10" value="START_BUTTON_PRESSED [selectedProgram == Baking]/ StartProgram()" style="text;html=1;align=center;verticalAlign=middle;resizable=0;points=[];autosize=1;strokeColor=none;fillColor=none;" vertex="1" parent="d3JRZ0Z-gsxvtp5kxETU-26">
          <mxGeometry x="30" y="490" width="430" height="30" as="geometry" />
        </mxCell>
        <mxCell id="DwlNqA49wbPzXnXZkH1S-11" value="MENU_BUTTON_LONG_PRESSED / State = Standby" style="text;html=1;align=center;verticalAlign=middle;resizable=0;points=[];autosize=1;strokeColor=none;fillColor=none;" parent="1" vertex="1">
          <mxGeometry x="-1590" y="-30" width="320" height="30" as="geometry" />
        </mxCell>
        <mxCell id="DwlNqA49wbPzXnXZkH1S-55" style="edgeStyle=orthogonalEdgeStyle;rounded=0;orthogonalLoop=1;jettySize=auto;html=1;exitX=0.422;exitY=-0.128;exitDx=0;exitDy=0;entryX=0.074;entryY=-0.028;entryDx=0;entryDy=0;entryPerimeter=0;exitPerimeter=0;" parent="1" source="d3JRZ0Z-gsxvtp5kxETU-11" target="d3JRZ0Z-gsxvtp5kxETU-11" edge="1">
          <mxGeometry relative="1" as="geometry">
            <Array as="points">
              <mxPoint x="-880" y="-284" />
              <mxPoint x="-880" y="-330" />
              <mxPoint x="-907" y="-330" />
            </Array>
          </mxGeometry>
        </mxCell>
        <mxCell id="DwlNqA49wbPzXnXZkH1S-56" value="TIMER_UP_BUTTON_PRESSED / HandleStandbyState()" style="text;html=1;align=center;verticalAlign=middle;resizable=0;points=[];autosize=1;strokeColor=none;fillColor=none;" parent="1" vertex="1">
          <mxGeometry x="-760" y="-320" width="330" height="30" as="geometry" />
        </mxCell>
        <mxCell id="DwlNqA49wbPzXnXZkH1S-57" value="TIMER_DOWN_BUTTON_PRESSED / HandleStandbyState()" style="text;html=1;align=center;verticalAlign=middle;resizable=0;points=[];autosize=1;strokeColor=none;fillColor=none;" parent="1" vertex="1">
          <mxGeometry x="-765" y="-250" width="350" height="30" as="geometry" />
        </mxCell>
        <mxCell id="DwlNqA49wbPzXnXZkH1S-62" style="edgeStyle=orthogonalEdgeStyle;rounded=0;orthogonalLoop=1;jettySize=auto;html=1;exitX=1;exitY=0.75;exitDx=0;exitDy=0;entryX=1;entryY=0.25;entryDx=0;entryDy=0;" parent="1" source="d3JRZ0Z-gsxvtp5kxETU-9" target="d3JRZ0Z-gsxvtp5kxETU-9" edge="1">
          <mxGeometry relative="1" as="geometry">
            <Array as="points">
              <mxPoint x="-760" y="-213" />
              <mxPoint x="-760" y="-257" />
            </Array>
          </mxGeometry>
        </mxCell>
        <mxCell id="DwlNqA49wbPzXnXZkH1S-70" value="" style="edgeStyle=orthogonalEdgeStyle;rounded=0;orthogonalLoop=1;jettySize=auto;html=1;entryX=0.75;entryY=0;entryDx=0;entryDy=0;" parent="1" source="DwlNqA49wbPzXnXZkH1S-68" target="d3JRZ0Z-gsxvtp5kxETU-11" edge="1">
          <mxGeometry relative="1" as="geometry">
            <mxPoint x="-850" y="-319.9999999999998" as="targetPoint" />
          </mxGeometry>
        </mxCell>
        <mxCell id="DwlNqA49wbPzXnXZkH1S-68" value="" style="shape=waypoint;sketch=0;fillStyle=solid;size=6;pointerEvents=1;points=[];fillColor=none;resizable=0;rotatable=0;perimeter=centerPerimeter;snapToPoint=1;strokeWidth=13;" parent="1" vertex="1">
          <mxGeometry x="-873" y="-420" width="20" height="20" as="geometry" />
        </mxCell>
      </root>
    </mxGraphModel>
  </diagram>
</mxfile>
